<svg xmlns="http://www.w3.org/2000/svg" viewBox="0 0 512 512" font-family="DejaVu Sans Mono, monospace">
  <rect width="512" height="512" fill="#FFFFFF"/>
  <g stroke="#E4E4E7" stroke-width="1">
    <line x1="0" y1="0" x2="0" y2="512"/><line x1="0" y1="0" x2="512" y2="0"/>
<line x1="64" y1="0" x2="64" y2="512"/><line x1="0" y1="64" x2="512" y2="64"/>
<line x1="128" y1="0" x2="128" y2="512"/><line x1="0" y1="128" x2="512" y2="128"/>
<line x1="192" y1="0" x2="192" y2="512"/><line x1="0" y1="192" x2="512" y2="192"/>
<line x1="256" y1="0" x2="256" y2="512"/><line x1="0" y1="256" x2="512" y2="256"/>
<line x1="320" y1="0" x2="320" y2="512"/><line x1="0" y1="320" x2="512" y2="320"/>
<line x1="384" y1="0" x2="384" y2="512"/><line x1="0" y1="384" x2="512" y2="384"/>
<line x1="448" y1="0" x2="448" y2="512"/><line x1="0" y1="448" x2="512" y2="448"/>
<line x1="512" y1="0" x2="512" y2="512"/><line x1="0" y1="512" x2="512" y2="512"/>
  </g>
  <path fill="#0A0A0B" fill-opacity="0.88" d="M 64,438 L 64,382 A 22 22 0 0 1 86,360 L 182,360 A 10 10 0 0 0 192,350 L 192,282 A 22 22 0 0 1 214,260 L 310,260 A 10 10 0 0 0 320,250 L 320,182 A 22 22 0 0 1 342,160 L 426,160 A 22 22 0 0 1 448,182 L 448,438 A 22 22 0 0 1 426,460 L 86,460 A 22 22 0 0 1 64,438 Z"/>
  <circle cx="384" cy="96" r="46" fill="#FF4E1B"/>
  <g fill="#71717A" font-size="17">
    <text x="128" y="348" text-anchor="middle">128</text>
    <text x="52" y="414" text-anchor="end">100</text>
    <text x="226" y="240">r22</text>
    <text x="150" y="338">r10</text>
    <text x="442" y="92">ø92</text>
    <text x="442" y="146">gap 18</text>
  </g>
</svg>
