<svg xmlns="http://www.w3.org/2000/svg" viewBox="0 0 64 64">
  <rect width="64" height="64" rx="14" fill="#0A0A0B"/>
  <g transform="translate(6.66,6.75) scale(0.099)">
    <path fill="#FAFAFA" d="M 64,438 L 64,382 A 22 22 0 0 1 86,360 L 182,360 A 10 10 0 0 0 192,350 L 192,282 A 22 22 0 0 1 214,260 L 310,260 A 10 10 0 0 0 320,250 L 320,182 A 22 22 0 0 1 342,160 L 426,160 A 22 22 0 0 1 448,182 L 448,438 A 22 22 0 0 1 426,460 L 86,460 A 22 22 0 0 1 64,438 Z"/>
    <circle cx="384" cy="96" r="46" fill="#FF4E1B"/>
  </g>
</svg>
