<svg xmlns="http://www.w3.org/2000/svg" viewBox="0 0 96 96">
<g transform="rotate(-8 46 42)">
 <path d="M48,7 C62,7 72,17 72,31 C72,45.5 62,55 48,55 C34,55 24,45.5 24,31 C24,17 34,7 48,7 Z" fill="#E8A50C" stroke="#261F18" stroke-width="3"></path>
 <path d="M48,10.2 C60.3,10.2 68.8,19 68.8,31 C68.8,43.7 60.3,51.8 48,51.8 C35.7,51.8 27.2,43.7 27.2,31 C27.2,19 35.7,10.2 48,10.2 Z" fill="none" stroke="#C98E08" stroke-width="1.6"></path>
 <g fill="#B0800A"><circle cx="41" cy="17.5" r="2"></circle><circle cx="48" cy="17.5" r="2"></circle><circle cx="55" cy="17.5" r="2"></circle><circle cx="34" cy="24.5" r="2"></circle><circle cx="41" cy="24.5" r="2"></circle><circle cx="48" cy="24.5" r="2"></circle><circle cx="55" cy="24.5" r="2"></circle><circle cx="62" cy="24.5" r="2"></circle><circle cx="34" cy="31.5" r="2"></circle><circle cx="41" cy="31.5" r="2"></circle><circle cx="48" cy="31.5" r="2"></circle><circle cx="55" cy="31.5" r="2"></circle><circle cx="62" cy="31.5" r="2"></circle><circle cx="34" cy="38.5" r="2"></circle><circle cx="41" cy="38.5" r="2"></circle><circle cx="48" cy="38.5" r="2"></circle><circle cx="55" cy="38.5" r="2"></circle><circle cx="62" cy="38.5" r="2"></circle><circle cx="41" cy="45.5" r="2"></circle><circle cx="48" cy="45.5" r="2"></circle><circle cx="55" cy="45.5" r="2"></circle></g>
 <path d="M41,54.2 h14 l-2,9.3 h-10 Z" fill="#E8A50C" stroke="#261F18" stroke-width="3" stroke-linejoin="round"></path>
 <rect x="43.2" y="62.5" width="9.6" height="18" rx="3.6" fill="#33302B" stroke="#261F18" stroke-width="3"></rect>
 <path d="M44,68.5 l8,3 M44,74 l8,3" stroke="#544D43" stroke-width="1.8"></path>
 <rect x="42" y="79.5" width="12" height="5" rx="2.3" fill="#261F18"></rect>
 <circle cx="58" cy="86" r="5.5" fill="none" stroke="#261F18" stroke-width="2.6"></circle>
 <path d="M52.5,83.5 L54.5,82" stroke="#261F18" stroke-width="2.6" stroke-linecap="round"></path>
</g>
<circle cx="77" cy="73" r="11" fill="#D9E63A" stroke="#261F18" stroke-width="3"></circle>
<path d="M69.2,67.5 C73.5,71 73.5,77.5 69.5,81 M84.8,67.2 C80.5,70.7 80.5,77.8 84.6,81.2" stroke="#261F18" stroke-width="2.2" fill="none" stroke-linecap="round"></path></svg>