<svg xmlns="http://www.w3.org/2000/svg" viewBox="0 0 96 96">
<g transform="rotate(-10 44 40)">
 <rect x="26" y="7" width="38" height="52" rx="17" fill="#A21F58" stroke="#261F18" stroke-width="3"></rect>
 <rect x="29.6" y="10.6" width="30.8" height="44.8" rx="13.6" fill="#C2286B"></rect>
 <path d="M37,13 C33.5,16 31.5,20 31.5,25" stroke="#E2578F" stroke-width="2.4" stroke-linecap="round" fill="none"></path>
 <path d="M40,56 h10 l-1.6,8.5 h-6.8 Z" fill="#A21F58" stroke="#261F18" stroke-width="3" stroke-linejoin="round"></path>
 <rect x="40.4" y="63.5" width="9.2" height="20" rx="3.6" fill="#33302B" stroke="#261F18" stroke-width="3"></rect>
 <path d="M41.2,69.5 l7.6,3 M41.2,75 l7.6,3" stroke="#544D43" stroke-width="1.8"></path>
 <rect x="39.2" y="82" width="11.6" height="5" rx="2.3" fill="#261F18"></rect>
</g>
<circle cx="74" cy="72" r="12.5" fill="#F5C623" stroke="#261F18" stroke-width="3"></circle>
<g fill="#D9A70B" stroke="#261F18" stroke-width="1.4">
 <circle cx="74" cy="72" r="2.1"></circle><circle cx="74" cy="64.6" r="2.1"></circle><circle cx="80.4" cy="68.2" r="2.1"></circle>
 <circle cx="80.4" cy="75.8" r="2.1"></circle><circle cx="74" cy="79.4" r="2.1"></circle><circle cx="67.6" cy="75.8" r="2.1"></circle><circle cx="67.6" cy="68.2" r="2.1"></circle>
</g>
<ellipse cx="69.5" cy="63.8" rx="3" ry="1.7" transform="rotate(-30 69.5 63.8)" fill="#FFFFFF" opacity=".5"></ellipse></svg>