<svg xmlns="http://www.w3.org/2000/svg" viewBox="0 0 96 96">
<path d="M48,13 C57,13 63.5,16.5 63.5,23 C63.5,35.5 53.5,47.5 49.3,54.5 h-2.6 C42.5,47.5 32.5,35.5 32.5,23 C32.5,16.5 39,13 48,13 Z" fill="#FDFBF4"></path>
<path d="M48,16 V52 M35,29 H61" stroke="#261F18" stroke-width="2.4"></path>
<path fill-rule="evenodd" fill="#7CC41E" stroke="#261F18" stroke-width="4" stroke-linejoin="round" d="M48,6 C61,6 70,11 70,22 C70,38 57,53 52.5,60 L52.5,63 h-9 L43.5,60 C39,53 26,38 26,22 C26,11 35,6 48,6 Z M48,13 C57,13 63.5,16.5 63.5,23 C63.5,35.5 53.5,47.5 49.3,54.5 h-2.6 C42.5,47.5 32.5,35.5 32.5,23 C32.5,16.5 39,13 48,13 Z"></path>
<rect x="43.5" y="63" width="9" height="14" rx="4" fill="#33302B" stroke="#261F18" stroke-width="4"></rect>
<circle cx="48" cy="83" r="4.2" fill="none" stroke="#261F18" stroke-width="3.2"></circle>
<circle cx="76" cy="74" r="10" fill="#2E77C9" stroke="#261F18" stroke-width="4"></circle>
<circle cx="72.8" cy="70.8" r="2.3" fill="#FFFFFF" opacity=".85"></circle></svg>