<svg xmlns="http://www.w3.org/2000/svg" viewBox="0 0 96 96">
<defs>
 <clipPath id="rhs"><path d="M48,8.5 C55.7,8.5 63,11.6 63,19.3 C63,34 53.6,49.5 48.9,57.8 h-1.8 C42.4,49.5 33,34 33,19.3 C33,11.6 40.3,8.5 48,8.5 Z"></path></clipPath>
 <clipPath id="rht"><polygon points="0,0 72,0 8,72 0,72"></polygon></clipPath>
</defs>
<g transform="rotate(-32 48 62) translate(-3,-4)">
<path d="M48,8.5 C55.7,8.5 63,11.6 63,19.3 C63,34 53.6,49.5 48.9,57.8 h-1.8 C42.4,49.5 33,34 33,19.3 C33,11.6 40.3,8.5 48,8.5 Z" fill="#FDFBF4"></path>
<g clip-path="url(#rhs)" stroke="#C4BCB1" stroke-width="1.3">
 <path d="M33.7,6 V60 M37.4,6 V60 M41.1,6 V60 M44.8,6 V60 M48.5,6 V60 M52.2,6 V60 M55.9,6 V60 M59.6,6 V60"></path>
 <path d="M30,11 H66 M30,15 H66 M30,19 H66 M30,23 H66 M30,27 H66 M30,31 H66 M30,35 H66 M30,39 H66 M30,43 H66 M30,47 H66 M30,51 H66 M30,55 H66"></path>
</g>
<path fill-rule="evenodd" fill="#2B2723" stroke="#261F18" stroke-width="2.8" stroke-linejoin="round" d="M48,5 C58.5,5 66.5,9.2 66.5,19 C66.5,35 55.5,51.5 50.9,59.5 L50.9,62 h-5.8 L45.1,59.5 C40.5,51.5 29.5,35 29.5,19 C29.5,9.2 37.5,5 48,5 Z M48,8.5 C55.7,8.5 63,11.6 63,19.3 C63,34 53.6,49.5 48.9,57.8 h-1.8 C42.4,49.5 33,34 33,19.3 C33,11.6 40.3,8.5 48,8.5 Z"></path>
<g clip-path="url(#rht)"><path fill-rule="evenodd" fill="#7CC41E" d="M48,5 C58.5,5 66.5,9.2 66.5,19 C66.5,35 55.5,51.5 50.9,59.5 L50.9,62 h-5.8 L45.1,59.5 C40.5,51.5 29.5,35 29.5,19 C29.5,9.2 37.5,5 48,5 Z M48,8.5 C55.7,8.5 63,11.6 63,19.3 C63,34 53.6,49.5 48.9,57.8 h-1.8 C42.4,49.5 33,34 33,19.3 C33,11.6 40.3,8.5 48,8.5 Z"></path></g>
<path fill-rule="evenodd" fill="none" stroke="#261F18" stroke-width="2.8" stroke-linejoin="round" d="M48,5 C58.5,5 66.5,9.2 66.5,19 C66.5,35 55.5,51.5 50.9,59.5 L50.9,62 h-5.8 L45.1,59.5 C40.5,51.5 29.5,35 29.5,19 C29.5,9.2 37.5,5 48,5 Z M48,8.5 C55.7,8.5 63,11.6 63,19.3 C63,34 53.6,49.5 48.9,57.8 h-1.8 C42.4,49.5 33,34 33,19.3 C33,11.6 40.3,8.5 48,8.5 Z"></path>
<path d="M45.2,57.5 L48,62.5 L50.8,57.5" fill="none" stroke="#261F18" stroke-width="2" stroke-linejoin="round"></path>
<rect x="44.4" y="62" width="7.2" height="21" rx="2.6" fill="#33302B" stroke="#261F18" stroke-width="2.6"></rect>
<path d="M45,67.5 l6,2.4 M45,72.5 l6,2.4 M45,77.5 l6,2.4" stroke="#544D43" stroke-width="1.5"></path>
<rect x="42.8" y="82.5" width="10.4" height="4.6" rx="2.1" fill="#261F18"></rect>
<circle cx="48" cy="90.4" r="3.3" fill="none" stroke="#261F18" stroke-width="2.3"></circle>
</g>

<g stroke="#A99C85" stroke-width="2.4" fill="none" stroke-linecap="round"><path d="M63,11 L73,5.5"></path><path d="M67,19 L76,14"></path><path d="M70,27 L78,22.5"></path></g>
<g stroke="#9FC1E4" stroke-width="2.4" stroke-linecap="round" fill="none"><path d="M59,71.5 h8 M56,78 h7"></path></g>
<circle cx="79" cy="74" r="10" fill="#2E77C9" stroke="#261F18" stroke-width="3"></circle>
<path d="M72.5,79.2 a10,10 0 0 0 12.4,-0.9" stroke="#2361A8" stroke-width="2.4" fill="none" stroke-linecap="round"></path>
<circle cx="75.6" cy="70" r="2.4" fill="#FFFFFF" opacity=".85"></circle></svg>