<svg xmlns="http://www.w3.org/2000/svg" viewBox="0 0 96 96">
<defs>
 <linearGradient id="tb" x1="0" y1="0" x2="1" y2="1"><stop offset="0" stop-color="#DCE94A"></stop><stop offset="1" stop-color="#B4C90F"></stop></linearGradient>
 <clipPath id="tc"><ellipse cx="48" cy="30" rx="15.5" ry="19.5"></ellipse></clipPath>
</defs>
<g transform="rotate(43 48 50)">
 <ellipse cx="48" cy="30" rx="15.5" ry="19.5" fill="#FDFBF4"></ellipse>
 <g clip-path="url(#tc)" stroke="#B6C0CB" stroke-width="1.4">
  <path d="M34.5,8 V54 M38.3,8 V54 M42.1,8 V54 M45.9,8 V54 M49.7,8 V54 M53.5,8 V54 M57.3,8 V54 M61.1,8 V54"></path>
  <path d="M30,12.6 H66 M30,16.8 H66 M30,21 H66 M30,25.2 H66 M30,29.4 H66 M30,33.6 H66 M30,37.8 H66 M30,42 H66 M30,46.2 H66"></path>
 </g>
 <path fill-rule="evenodd" fill="#2F6DB0" stroke="#261F18" stroke-width="3" stroke-linejoin="round" d="M27.5,30 a20.5,24.5 0 1 0 41,0 a20.5,24.5 0 1 0 -41,0 Z M32.5,30 a15.5,19.5 0 1 0 31,0 a15.5,19.5 0 1 0 -31,0 Z"></path>
 <path d="M33,15.5 C37,9.8 42.5,7.2 47.5,7.2" stroke="#5E97D2" stroke-width="2.2" stroke-linecap="round" fill="none"></path>
 <path d="M39.5,51.5 L45.8,63.5 M56.5,51.5 L50.2,63.5" stroke="#261F18" stroke-width="8" stroke-linecap="round"></path>
 <path d="M39.5,51.5 L45.8,63.5 M56.5,51.5 L50.2,63.5" stroke="#2F6DB0" stroke-width="4.6" stroke-linecap="round"></path>
 <rect x="43.6" y="62.5" width="8.8" height="24" rx="3.4" fill="#F08A24" stroke="#261F18" stroke-width="3"></rect>
 <path d="M44.4,68.5 l7.2,3 M44.4,74 l7.2,3 M44.4,79.5 l7.2,3" stroke="#C96F12" stroke-width="1.8"></path>
 <rect x="42.4" y="85" width="11.2" height="5.2" rx="2.4" fill="#261F18"></rect>
</g>
<circle cx="73.5" cy="76" r="13" fill="url(#tb)" stroke="#261F18" stroke-width="3"></circle>
<path d="M64.3,67.3 C69.5,71.5 69.5,80.5 64.6,84.7 M82.7,67 C77.5,71.2 77.5,80.8 82.5,85" stroke="#261F18" stroke-width="2.4" fill="none" stroke-linecap="round"></path>
<ellipse cx="69" cy="70.5" rx="3.4" ry="1.9" transform="rotate(-32 69 70.5)" fill="#FFFFFF" opacity=".5"></ellipse></svg>